<mxfile host="app.diagrams.net" modified="2024-09-04T19:01:16.782Z" agent="Mozilla/5.0 (Windows NT 10.0; Win64; x64) AppleWebKit/537.36 (KHTML, like Gecko) Chrome/128.0.0.0 Safari/537.36 Edg/128.0.0.0" version="24.4.14" etag="03WKKjLxgQspihzVpYt5" type="github">
  <diagram name="Страница — 1" id="AVCEBr-J58IlIY6L-fFK">
    <mxGraphModel>
      <root>
        <mxCell id="0" />
        <mxCell id="1" parent="0" />
      </root>
    </mxGraphModel>
  </diagram>
</mxfile>
